HIERARCHY
ROOT Hips
{
 OFFSET 0.000000 0.000000 0.000000
 CHANNELS 6 Xposition Yposition Zposition Yrotation Xrotation Zrotation
 JOINT Chest
 {
  OFFSET 0.000000 10.452742 -1.161416
  CHANNELS 3 Yrotation Xrotation Zrotation
  JOINT Chest2
  {
   OFFSET 0.000000 11.642015 0.000000
   CHANNELS 3 Yrotation Xrotation Zrotation
   JOINT Chest3
   {
    OFFSET 0.000000 10.628653 0.003331
    CHANNELS 3 Yrotation Xrotation Zrotation
    JOINT Chest4
    {
     OFFSET 0.000000 10.616789 0.003334
     CHANNELS 3 Yrotation Xrotation Zrotation
     JOINT Neck
     {
      OFFSET 0.000000 14.863263 0.000000
      CHANNELS 3 Yrotation Xrotation Zrotation
      JOINT Head
      {
       OFFSET 0.000000 9.883432 -0.007164
       CHANNELS 3 Yrotation Xrotation Zrotation
       End Site
       {
        OFFSET 0.000000 18.374284 -0.000963
       }
      }
     }
     JOINT RightCollar
     {
      OFFSET -3.226349 8.329632 0.000000
      CHANNELS 3 Yrotation Xrotation Zrotation
      JOINT RightShoulder
      {
       OFFSET -15.005172 0.000000 0.000000
       CHANNELS 3 Yrotation Xrotation Zrotation
       JOINT RightElbow
       {
        OFFSET -32.060772 0.000000 0.000000
        CHANNELS 3 Yrotation Xrotation Zrotation
        JOINT RightWrist
        {
         OFFSET -26.219035 0.000000 0.000000
         CHANNELS 3 Yrotation Xrotation Zrotation
         End Site
         {
          OFFSET -19.605622 0.000000 0.000000
         }
        }
       }
      }
     }
     JOINT LeftCollar
     {
      OFFSET 3.226349 8.329632 0.000000
      CHANNELS 3 Yrotation Xrotation Zrotation
      JOINT LeftShoulder
      {
       OFFSET 15.005172 0.000000 0.000000
       CHANNELS 3 Yrotation Xrotation Zrotation
       JOINT LeftElbow
       {
        OFFSET 32.060772 0.000000 0.000000
        CHANNELS 3 Yrotation Xrotation Zrotation
        JOINT LeftWrist
        {
         OFFSET 26.219035 0.000000 0.000000
         CHANNELS 3 Yrotation Xrotation Zrotation
         End Site
         {
          OFFSET 19.605622 0.000000 0.000000
         }
        }
       }
      }
     }
    }
   }
  }
 }
 JOINT RightHip
 {
  OFFSET -8.580723 -0.006978 0.000775
  CHANNELS 3 Yrotation Xrotation Zrotation
  JOINT RightKnee
  {
   OFFSET 0.000000 -44.536629 0.000787
   CHANNELS 3 Yrotation Xrotation Zrotation
   JOINT RightAnkle
   {
    OFFSET 0.000000 -43.528603 0.001328
    CHANNELS 3 Yrotation Xrotation Zrotation
    JOINT RightToe
    {
     OFFSET 0.000000 -7.259351 16.426635
     CHANNELS 3 Yrotation Xrotation Zrotation
     End Site
     {
      OFFSET 0.000000 -1.634445 7.029403
     }
    }
   }
  }
 }
 JOINT LeftHip
 {
  OFFSET 8.580723 -0.009328 0.001036
  CHANNELS 3 Yrotation Xrotation Zrotation
  JOINT LeftKnee
  {
   OFFSET 0.000000 -44.536629 0.000787
   CHANNELS 3 Yrotation Xrotation Zrotation
   JOINT LeftAnkle
   {
    OFFSET 0.000000 -43.528603 0.001328
    CHANNELS 3 Yrotation Xrotation Zrotation
    JOINT LeftToe
    {
     OFFSET 0.000000 -7.259351 16.426635
     CHANNELS 3 Yrotation Xrotation Zrotation
     End Site
     {
      OFFSET 0.000000 -1.634445 7.029403
     }
    }
   }
  }
 }
}
MOTION
Frames: 11
Frame Time: 0.004167
0.000000 96.820495 0.000000 0.000000 6.340192 0.000000 0.000000 -6.340192 0.000000 0.000000 -5.826342 0.000000 0.000000 -0.005910 0.000000 0.000000 5.832252 0.000000 0.000000 12.610213 0.000000 0.000000 -9.243752 0.000000 0.000000 0.000000 0.000000 0.000000 0.000000 0.000000 2.309063 0.000000 0.000000 -2.309063 0.000000 0.000000 0.000000 0.000000 0.000000 0.000000 0.000000 0.000000 -2.309063 0.000000 0.000000 2.309063 0.000000 0.000000 0.000000 -3.591006 0.000000 0.000000 1.872585 0.000000 0.000000 -4.621771 0.000000 0.000000 0.000000 0.000000 0.000000 -3.587706 0.000000 0.000000 1.905768 0.000000 0.000000 -4.658254 0.000000 0.000000 0.000000 0.000000
-0.000454 97.575207 0.012538 -18.392776 3.988432 1.193164 -0.003678 2.736846 0.178881 -0.010787 -4.609961 0.079741 -0.010763 1.210471 0.078646 -0.002191 6.744533 0.059406 -3.442786 9.058538 -0.657924 -6.424601 -19.155456 0.361866 -0.633232 -9.632428 6.210712 1.631144 -10.638779 79.421904 -8.579054 -0.407318 8.940153 -10.947854 -1.755704 -3.665577 -3.799347 -8.251886 -9.289292 8.072536 -3.906201 -78.468852 5.229757 -1.417664 -11.247190 -9.384557 -3.072658 4.821426 1.480700 -3.441313 -0.911555 0.206077 -4.628338 -0.069535 3.287862 6.180515 0.451037 0.009484 -2.055471 -0.528695 6.433480 0.889791 -2.510226 0.931200 -7.163641 -0.352538 5.926415 5.831676 3.239912 0.050310 -3.327907 -1.844334
-0.002288 97.568156 0.024614 -18.403476 4.004458 1.192413 -0.018701 2.721939 0.171973 -0.017112 -4.616592 0.076752 -0.017068 1.203840 0.075014 -0.007190 6.739560 0.056675 -3.438500 9.063418 -0.650530 -6.419528 -19.146197 0.374011 -0.604376 -9.611572 6.258714 1.630830 -10.623714 79.372638 -8.567441 -0.402945 8.937195 -10.939612 -1.748944 -3.647364 -3.797258 -8.231031 -9.254974 8.082307 -3.996048 -78.490553 5.238446 -1.424359 -11.251752 -9.313375 -3.069480 4.828245 1.472575 -3.440405 -0.908631 0.223577 -4.645817 -0.076895 3.289630 6.166134 0.457897 0.009446 -2.040909 -0.530292 6.417180 0.893865 -2.503106 0.969334 -7.182444 -0.373817 5.918460 5.807242 3.245067 0.049896 -3.308478 -1.839436
-0.004100 97.561012 0.036695 -18.414305 4.020702 1.191701 -0.033872 2.706851 0.164999 -0.023500 -4.623303 0.073733 -0.023437 1.197129 0.071347 -0.012239 6.734527 0.053918 -3.434092 9.068344 -0.643034 -6.414260 -19.136852 0.386294 -0.575249 -9.590485 6.307130 1.630471 -10.608596 79.322900 -8.555602 -0.398408 8.934264 -10.931471 -1.742130 -3.628817 -3.795139 -8.209850 -9.220306 8.092363 -4.086631 -78.512516 5.247161 -1.430832 -11.256375 -9.241598 -3.066159 4.835119 1.464261 -3.439604 -0.905710 0.241359 -4.663529 -0.084359 3.291452 6.151782 0.464825 0.009406 -2.026260 -0.531881 6.400703 0.897871 -2.495948 1.007988 -7.201449 -0.395403 5.910344 5.782600 3.250343 0.049481 -3.288862 -1.834506
-0.005902 97.553821 0.048780 -18.425198 4.037054 1.191007 -0.049117 2.691669 0.157999 -0.029920 -4.630056 0.070702 -0.029837 1.190376 0.067664 -0.017312 6.729462 0.051148 -3.429622 9.073296 -0.635488 -6.408895 -19.127459 0.398642 -0.545983 -9.569280 6.355756 1.630079 -10.593460 79.272925 -8.543649 -0.393790 8.931349 -10.923381 -1.735290 -3.610103 -3.793001 -8.188492 -9.185471 8.102592 -4.177587 -78.534589 5.255888 -1.437196 -11.261026 -9.169520 -3.062776 4.842006 1.455854 -3.438856 -0.902789 0.259281 -4.681356 -0.091876 3.293300 6.137445 0.471788 0.009366 -2.011568 -0.533466 6.384140 0.901843 -2.488768 1.046904 -7.220549 -0.417152 5.902144 5.757856 3.255679 0.049066 -3.269152 -1.829560
-0.007704 97.546630 0.060864 -18.436092 4.053407 1.190309 -0.064362 2.676484 0.151011 -0.036341 -4.636809 0.067675 -0.036237 1.183623 0.063985 -0.022386 6.724396 0.048381 -3.425154 9.078253 -0.627945 -6.403529 -19.118058 0.410986 -0.516711 -9.548069 6.404384 1.629664 -10.578343 79.222948 -8.531694 -0.389176 8.928438 -10.915293 -1.728455 -3.591386 -3.790856 -8.167110 -9.150651 8.112881 -4.268551 -78.556617 5.264613 -1.443567 -11.265670 -9.097437 -3.059410 4.848865 1.447447 -3.438107 -0.899867 0.277204 -4.699183 -0.099398 3.295145 6.123107 0.478751 0.009325 -1.996876 -0.535052 6.367579 0.905818 -2.481587 1.085825 -7.239637 -0.438919 5.893937 5.733113 3.261014 0.048652 -3.249443 -1.824613
-0.009516 97.539486 0.072946 -18.446922 4.069650 1.189588 -0.079532 2.661386 0.144071 -0.042731 -4.643524 0.064668 -0.042607 1.176908 0.060329 -0.027434 6.719360 0.045632 -3.420749 9.083194 -0.620457 -6.398261 -19.108688 0.423254 -0.487565 -9.526965 6.452809 1.629239 -10.563279 79.173206 -8.519849 -0.384650 8.925518 -10.907159 -1.721651 -3.572830 -3.788714 -8.145855 -9.116030 8.123115 -4.359160 -78.578448 5.273325 -1.450060 -11.270272 -9.025645 -3.056139 4.855657 1.439136 -3.437304 -0.896940 0.294989 -4.716893 -0.106876 3.296958 6.108755 0.485679 0.009284 -1.982227 -0.536642 6.351110 0.909832 -2.474420 1.124493 -7.258610 -0.460560 5.885802 5.708475 3.266288 0.048242 -3.229827 -1.819682
-0.011350 97.532435 0.085021 -18.457624 4.085675 1.188821 -0.094552 2.646464 0.137218 -0.049060 -4.650159 0.061698 -0.048915 1.170271 0.056717 -0.032434 6.714382 0.042915 -3.416469 9.088096 -0.613074 -6.393187 -19.099389 0.435375 -0.458677 -9.506080 6.500825 1.628813 -10.548303 79.123934 -8.508227 -0.380296 8.922577 -10.898929 -1.714907 -3.554600 -3.786586 -8.124880 -9.081790 8.133179 -4.449049 -78.599932 5.282007 -1.456790 -11.274799 -8.954438 -3.053045 4.862342 1.431014 -3.436392 -0.894006 0.312495 -4.734370 -0.114261 3.298710 6.094374 0.492538 0.009243 -1.967665 -0.538238 6.334822 0.913921 -2.467287 1.162650 -7.277360 -0.481928 5.877815 5.684048 3.271438 0.047836 -3.210399 -1.814781
-0.013215 97.525525 0.097088 -18.468132 4.101372 1.187989 -0.109348 2.631808 0.130488 -0.055295 -4.656676 0.058781 -0.055130 1.163753 0.053166 -0.037359 6.709494 0.040245 -3.412377 9.092940 -0.605851 -6.388406 -19.090200 0.447278 -0.430179 -9.485528 6.548225 1.628400 -10.533450 79.075368 -8.496938 -0.376197 8.919602 -10.890554 -1.708253 -3.536861 -3.784486 -8.104338 -9.048112 8.142956 -4.537853 -78.620916 5.290649 -1.463872 -11.279214 -8.884112 -3.050204 4.868882 1.423176 -3.435318 -0.891063 0.329583 -4.751499 -0.121503 3.300373 6.079948 0.499292 0.009203 -1.953235 -0.539846 6.318804 0.918121 -2.460205 1.200039 -7.295784 -0.502878 5.870056 5.659935 3.276405 0.047435 -3.191253 -1.809926
-0.015123 97.518802 0.109143 -18.478384 4.116633 1.187070 -0.123845 2.617508 0.123920 -0.061406 -4.663035 0.055933 -0.061221 1.157394 0.049698 -0.042185 6.704724 0.037637 -3.408533 9.097703 -0.598838 -6.384014 -19.081161 0.458892 -0.402206 -9.465422 6.594802 1.628010 -10.518753 79.027745 -8.486097 -0.372437 8.916582 -10.881986 -1.701715 -3.519777 -3.782425 -8.084384 -9.015179 8.152329 -4.625208 -78.641249 5.299235 -1.471419 -11.283483 -8.814964 -3.047695 4.875237 1.415715 -3.434028 -0.888108 0.346112 -4.768163 -0.128555 3.301919 6.065464 0.505907 0.009163 -1.938978 -0.541468 6.303145 0.922467 -2.453193 1.236401 -7.313777 -0.523263 5.862602 5.636240 3.281128 0.047041 -3.172482 -1.805134
-0.017084 97.512313 0.121184 -18.488313 4.131349 1.186045 -0.137970 2.603654 0.117549 -0.067362 -4.669194 0.053170 -0.067157 1.151234 0.046330 -0.046887 6.700104 0.035104 -3.405000 9.102364 -0.592087 -6.380109 -19.072314 0.470147 -0.374889 -9.445874 6.640352 1.627658 -10.504247 78.981299 -8.475815 -0.369101 8.913502 -10.873174 -1.695324 -3.503513 -3.780414 -8.065171 -8.983171 8.161177 -4.710749 -78.660782 5.307753 -1.479547 -11.287569 -8.747289 -3.045596 4.881372 1.408728 -3.432469 -0.885140 0.361943 -4.784246 -0.135365 3.303318 6.050907 0.512350 0.009124 -1.924939 -0.543109 6.287935 0.926997 -2.446270 1.271478 -7.331233 -0.542937 5.855531 5.613069 3.285545 0.046655 -3.154180 -1.800420
